<svg xmlns="http://www.w3.org/2000/svg" xmlns:xlink="http://www.w3.org/1999/xlink" xmlns:inkscape="http://www.inkscape.org/namespaces/inkscape" version="1.1" width="720" height="527.037" viewBox="0 0 720 527.037">
<defs>
<clipPath id="clip_0">
<path transform="matrix(1,0,0,-1,0,527.037)" d="M0 527.037H720V0H0Z"/>
</clipPath>
</defs>
<g inkscape:groupmode="layer" inkscape:label="Layer 1">
<g clip-path="url(#clip_0)">
<path transform="matrix(1,0,0,-1,166.2413,133.38828)" d="M0 0C0 3.675-3.53 6.248-7.064 5.242-14.372 3.163-21.142 5.287-26.221 8.079-33.378 12.008-40.704 14.438-47.994 15.308-49.002 15.427-49.961 15.518-50.873 15.582-55.032 15.872-58.269 12.02-57.342 7.955-56.048 8.248-53.529 8.487-48.863 7.937-42.531 7.183-36.11 5.046-29.786 1.578-23.387-1.941-12.102-5.934 0 0" fill="#78cdd0"/>
<path transform="matrix(1,0,0,-1,178.8053,138.51798)" d="M0 0C-24.665-12-32.062-8.834-43.13-4.098-49.774-1.251-57.303 1.978-68.266 3.193-68.294 3.196-68.323 3.199-68.351 3.202-72.786 3.679-76.613 .076-76.613-4.385V-4.388C-74.203-3.979-71.676-3.897-69.082-4.186-59.21-5.286-52.212-8.275-46.049-10.918-35.971-15.227-27.058-19.053-6.536-11-2.586-9.45 .023-5.644 .027-1.401 .027-.94 .018-.461 0 0" fill="#78cdd0"/>
<path transform="matrix(1,0,0,-1,254.326,133.38828)" d="M0 0C0 3.675-3.53 6.248-7.064 5.242-14.372 3.163-21.142 5.287-26.221 8.079-33.378 12.008-40.704 14.438-47.994 15.308-49.002 15.427-49.961 15.518-50.873 15.582-55.032 15.872-58.269 12.02-57.342 7.955-56.048 8.248-53.529 8.487-48.864 7.937-42.531 7.183-36.11 5.046-29.786 1.578-23.387-1.941-12.102-5.934 0 0" fill="#78cdd0"/>
<path transform="matrix(1,0,0,-1,266.89,138.51798)" d="M0 0C-24.665-12-32.062-8.834-43.13-4.098-49.774-1.251-57.303 1.978-68.266 3.193-68.294 3.196-68.323 3.199-68.351 3.202-72.786 3.679-76.613 .076-76.613-4.385V-4.388C-74.203-3.979-71.676-3.897-69.082-4.186-59.21-5.286-52.213-8.275-46.049-10.918-35.971-15.227-27.058-19.053-6.536-11-2.586-9.45 .023-5.644 .027-1.401 .027-.94 .018-.461 0 0" fill="#78cdd0"/>
<path transform="matrix(1,0,0,-1,340.9635,133.38828)" d="M0 0C0 3.675-3.53 6.248-7.064 5.242-14.372 3.163-21.142 5.287-26.221 8.079-33.378 12.008-40.704 14.438-47.994 15.308-49.002 15.427-49.961 15.518-50.873 15.582-55.032 15.872-58.269 12.02-57.342 7.955-56.048 8.248-53.529 8.487-48.863 7.937-42.531 7.183-36.11 5.046-29.786 1.578-23.387-1.941-12.102-5.934 0 0" fill="#78cdd0"/>
<path transform="matrix(1,0,0,-1,353.5275,138.51798)" d="M0 0C-24.665-12-32.062-8.834-43.13-4.098-49.774-1.251-57.303 1.978-68.266 3.193-68.294 3.196-68.323 3.199-68.351 3.202-72.786 3.679-76.613 .076-76.613-4.385V-4.388C-74.203-3.979-71.676-3.897-69.082-4.186-59.21-5.286-52.212-8.275-46.048-10.918-35.971-15.227-27.058-19.053-6.536-11-2.586-9.45 .023-5.644 .027-1.401 .027-.94 .018-.461 0 0" fill="#78cdd0"/>
<path transform="matrix(1,0,0,-1,429.0482,133.38828)" d="M0 0C0 3.675-3.53 6.248-7.064 5.242-14.372 3.163-21.142 5.287-26.221 8.079-33.378 12.008-40.704 14.438-47.994 15.308-49.002 15.427-49.961 15.518-50.873 15.582-55.032 15.872-58.269 12.02-57.342 7.955-56.048 8.248-53.529 8.487-48.863 7.937-42.531 7.183-36.11 5.046-29.786 1.578-23.387-1.941-12.102-5.934 0 0" fill="#78cdd0"/>
<path transform="matrix(1,0,0,-1,441.6122,138.51798)" d="M0 0C-24.665-12-32.062-8.834-43.13-4.098-49.774-1.251-57.303 1.978-68.266 3.193-68.294 3.196-68.323 3.199-68.351 3.202-72.786 3.679-76.613 .076-76.613-4.385V-4.388C-74.203-3.979-71.676-3.897-69.082-4.186-59.21-5.286-52.212-8.275-46.048-10.918-35.971-15.227-27.058-19.053-6.536-11-2.586-9.45 .023-5.644 .027-1.401 .027-.94 .018-.461 0 0" fill="#78cdd0"/>
<path transform="matrix(1,0,0,-1,166.2413,169.8201)" d="M0 0C0 3.675-3.53 6.248-7.064 5.242-14.372 3.163-21.142 5.287-26.221 8.079-33.378 12.008-40.704 14.438-47.994 15.308-49.002 15.427-49.961 15.518-50.873 15.582-55.032 15.872-58.269 12.02-57.342 7.955-56.048 8.248-53.529 8.487-48.863 7.937-42.531 7.183-36.11 5.046-29.786 1.578-23.387-1.941-12.102-5.934 0 0Z" fill="#78cdd0"/>
<path transform="matrix(1,0,0,-1,178.8053,174.94989)" d="M0 0C-24.665-12-32.062-8.834-43.13-4.098-49.774-1.251-57.303 1.978-68.266 3.193-68.294 3.196-68.323 3.199-68.351 3.202-72.786 3.679-76.613 .076-76.613-4.385V-4.388C-74.203-3.979-71.676-3.897-69.082-4.186-59.21-5.286-52.212-8.275-46.049-10.918-35.971-15.227-27.058-19.053-6.536-11-2.586-9.45 .023-5.644 .027-1.401 .027-.94 .018-.461 0 0" fill="#78cdd0"/>
<path transform="matrix(1,0,0,-1,254.326,169.8201)" d="M0 0C0 3.675-3.53 6.248-7.064 5.242-14.372 3.163-21.142 5.287-26.221 8.079-33.378 12.008-40.704 14.438-47.994 15.308-49.002 15.427-49.961 15.518-50.873 15.582-55.032 15.872-58.269 12.02-57.342 7.955-56.048 8.248-53.529 8.487-48.864 7.937-42.531 7.183-36.11 5.046-29.786 1.578-23.387-1.941-12.102-5.934 0 0Z" fill="#78cdd0"/>
<path transform="matrix(1,0,0,-1,266.89,174.94989)" d="M0 0C-24.665-12-32.062-8.834-43.13-4.098-49.774-1.251-57.303 1.978-68.266 3.193-68.294 3.196-68.323 3.199-68.351 3.202-72.786 3.679-76.613 .076-76.613-4.385V-4.388C-74.203-3.979-71.676-3.897-69.082-4.186-59.21-5.286-52.213-8.275-46.049-10.918-35.971-15.227-27.058-19.053-6.536-11-2.586-9.45 .023-5.644 .027-1.401 .027-.94 .018-.461 0 0" fill="#78cdd0"/>
<path transform="matrix(1,0,0,-1,340.9635,169.8201)" d="M0 0C0 3.675-3.53 6.248-7.064 5.242-14.372 3.163-21.142 5.287-26.221 8.079-33.378 12.008-40.704 14.438-47.994 15.308-49.002 15.427-49.961 15.518-50.873 15.582-55.032 15.872-58.269 12.02-57.342 7.955-56.048 8.248-53.529 8.487-48.863 7.937-42.531 7.183-36.11 5.046-29.786 1.578-23.387-1.941-12.102-5.934 0 0Z" fill="#78cdd0"/>
<path transform="matrix(1,0,0,-1,353.5275,174.94989)" d="M0 0C-24.665-12-32.062-8.834-43.13-4.098-49.774-1.251-57.303 1.978-68.266 3.193-68.294 3.196-68.323 3.199-68.351 3.202-72.786 3.679-76.613 .076-76.613-4.385V-4.388C-74.203-3.979-71.676-3.897-69.082-4.186-59.21-5.286-52.212-8.275-46.048-10.918-35.971-15.227-27.058-19.053-6.536-11-2.586-9.45 .023-5.644 .027-1.401 .027-.94 .018-.461 0 0" fill="#78cdd0"/>
<path transform="matrix(1,0,0,-1,429.0482,169.8201)" d="M0 0C0 3.675-3.53 6.248-7.064 5.242-14.372 3.163-21.142 5.287-26.221 8.079-33.378 12.008-40.704 14.438-47.994 15.308-49.002 15.427-49.961 15.518-50.873 15.582-55.032 15.872-58.269 12.02-57.342 7.955-56.048 8.248-53.529 8.487-48.863 7.937-42.531 7.183-36.11 5.046-29.786 1.578-23.387-1.941-12.102-5.934 0 0Z" fill="#78cdd0"/>
<path transform="matrix(1,0,0,-1,441.6122,174.94989)" d="M0 0C-24.665-12-32.062-8.834-43.13-4.098-49.774-1.251-57.303 1.978-68.266 3.193-68.294 3.196-68.323 3.199-68.351 3.202-72.786 3.679-76.613 .076-76.613-4.385V-4.388C-74.203-3.979-71.676-3.897-69.082-4.186-59.21-5.286-52.212-8.275-46.048-10.918-35.971-15.227-27.058-19.053-6.536-11-2.586-9.45 .023-5.644 .027-1.401 .027-.94 .018-.461 0 0" fill="#78cdd0"/>
<path transform="matrix(1,0,0,-1,166.2413,206.25199)" d="M0 0C0 3.675-3.53 6.248-7.064 5.242-14.372 3.163-21.142 5.287-26.221 8.079-33.378 12.008-40.704 14.438-47.994 15.308-49.002 15.427-49.961 15.518-50.873 15.582-55.032 15.872-58.269 12.02-57.342 7.955-56.048 8.248-53.529 8.487-48.863 7.937-42.531 7.183-36.11 5.046-29.786 1.578-23.387-1.941-12.102-5.934 0 0" fill="#78cdd0"/>
<path transform="matrix(1,0,0,-1,178.8053,211.38178)" d="M0 0C-24.665-12-32.062-8.834-43.13-4.098-49.774-1.251-57.303 1.978-68.266 3.193-68.294 3.196-68.323 3.199-68.351 3.202-72.786 3.679-76.613 .076-76.613-4.385V-4.388C-74.203-3.978-71.676-3.897-69.082-4.186-59.21-5.286-52.212-8.275-46.049-10.918-35.971-15.227-27.058-19.053-6.536-11-2.586-9.45 .023-5.644 .027-1.401 .027-.94 .018-.461 0 0" fill="#78cdd0"/>
<path transform="matrix(1,0,0,-1,254.326,206.25199)" d="M0 0C0 3.675-3.53 6.248-7.064 5.242-14.372 3.163-21.142 5.287-26.221 8.079-33.378 12.008-40.704 14.438-47.994 15.308-49.002 15.427-49.961 15.518-50.873 15.582-55.032 15.872-58.269 12.02-57.342 7.955-56.048 8.248-53.529 8.487-48.864 7.937-42.531 7.183-36.11 5.046-29.786 1.578-23.387-1.941-12.102-5.934 0 0" fill="#78cdd0"/>
<path transform="matrix(1,0,0,-1,266.89,211.38178)" d="M0 0C-24.665-12-32.062-8.834-43.13-4.098-49.774-1.251-57.303 1.978-68.266 3.193-68.294 3.196-68.323 3.199-68.351 3.202-72.786 3.679-76.613 .076-76.613-4.385V-4.388C-74.203-3.978-71.676-3.897-69.082-4.186-59.21-5.286-52.213-8.275-46.049-10.918-35.971-15.227-27.058-19.053-6.536-11-2.586-9.45 .023-5.644 .027-1.401 .027-.94 .018-.461 0 0" fill="#78cdd0"/>
<path transform="matrix(1,0,0,-1,340.9635,206.25199)" d="M0 0C0 3.675-3.53 6.248-7.064 5.242-14.372 3.163-21.142 5.287-26.221 8.079-33.378 12.008-40.704 14.438-47.994 15.308-49.002 15.427-49.961 15.518-50.873 15.582-55.032 15.872-58.269 12.02-57.342 7.955-56.048 8.248-53.529 8.487-48.863 7.937-42.531 7.183-36.11 5.046-29.786 1.578-23.387-1.941-12.102-5.934 0 0" fill="#78cdd0"/>
<path transform="matrix(1,0,0,-1,353.5275,211.38178)" d="M0 0C-24.665-12-32.062-8.834-43.13-4.098-49.774-1.251-57.303 1.978-68.266 3.193-68.294 3.196-68.323 3.199-68.351 3.202-72.786 3.679-76.613 .076-76.613-4.385V-4.388C-74.203-3.978-71.676-3.897-69.082-4.186-59.21-5.286-52.212-8.275-46.048-10.918-35.971-15.227-27.058-19.053-6.536-11-2.586-9.45 .023-5.644 .027-1.401 .027-.94 .018-.461 0 0" fill="#78cdd0"/>
<path transform="matrix(1,0,0,-1,429.0482,206.25199)" d="M0 0C0 3.675-3.53 6.248-7.064 5.242-14.372 3.163-21.142 5.287-26.221 8.079-33.378 12.008-40.704 14.438-47.994 15.308-49.002 15.427-49.961 15.518-50.873 15.582-55.032 15.872-58.269 12.02-57.342 7.955-56.048 8.248-53.529 8.487-48.863 7.937-42.531 7.183-36.11 5.046-29.786 1.578-23.387-1.941-12.102-5.934 0 0" fill="#78cdd0"/>
<path transform="matrix(1,0,0,-1,441.6122,211.38178)" d="M0 0C-24.665-12-32.062-8.834-43.13-4.098-49.774-1.251-57.303 1.978-68.266 3.193-68.294 3.196-68.323 3.199-68.351 3.202-72.786 3.679-76.613 .076-76.613-4.385V-4.388C-74.203-3.978-71.676-3.897-69.082-4.186-59.21-5.286-52.212-8.275-46.048-10.918-35.971-15.227-27.058-19.053-6.536-11-2.586-9.45 .023-5.644 .027-1.401 .027-.94 .018-.461 0 0" fill="#78cdd0"/>
<path transform="matrix(1,0,0,-1,166.2413,242.6839)" d="M0 0C0 3.675-3.53 6.248-7.064 5.242-14.372 3.163-21.142 5.287-26.221 8.079-33.378 12.008-40.704 14.438-47.994 15.308-49.002 15.427-49.961 15.518-50.873 15.582-55.032 15.872-58.269 12.02-57.342 7.955-56.048 8.248-53.529 8.487-48.863 7.937-42.531 7.183-36.11 5.046-29.786 1.578-23.387-1.941-12.102-5.934 0 0" fill="#78cdd0"/>
<path transform="matrix(1,0,0,-1,178.8053,247.8136)" d="M0 0C-24.665-12-32.062-8.834-43.13-4.098-49.774-1.251-57.303 1.978-68.266 3.193-68.294 3.196-68.323 3.199-68.351 3.202-72.786 3.679-76.613 .076-76.613-4.385V-4.388C-74.203-3.979-71.676-3.897-69.082-4.186-59.21-5.286-52.212-8.275-46.049-10.918-35.971-15.227-27.058-19.053-6.536-11-2.586-9.45 .023-5.644 .027-1.401 .027-.94 .018-.461 0 0" fill="#78cdd0"/>
<path transform="matrix(1,0,0,-1,254.326,242.6839)" d="M0 0C0 3.675-3.53 6.248-7.064 5.242-14.372 3.163-21.142 5.287-26.221 8.079-33.378 12.008-40.704 14.438-47.994 15.308-49.002 15.427-49.961 15.518-50.873 15.582-55.032 15.872-58.269 12.02-57.342 7.955-56.048 8.248-53.529 8.487-48.864 7.937-42.531 7.183-36.11 5.046-29.786 1.578-23.387-1.941-12.102-5.934 0 0" fill="#78cdd0"/>
<path transform="matrix(1,0,0,-1,266.89,247.8136)" d="M0 0C-24.665-12-32.062-8.834-43.13-4.098-49.774-1.251-57.303 1.978-68.266 3.193-68.294 3.196-68.323 3.199-68.351 3.202-72.786 3.679-76.613 .076-76.613-4.385V-4.388C-74.203-3.979-71.676-3.897-69.082-4.186-59.21-5.286-52.213-8.275-46.049-10.918-35.971-15.227-27.058-19.053-6.536-11-2.586-9.45 .023-5.644 .027-1.401 .027-.94 .018-.461 0 0" fill="#78cdd0"/>
<path transform="matrix(1,0,0,-1,340.9635,242.6839)" d="M0 0C0 3.675-3.53 6.248-7.064 5.242-14.372 3.163-21.142 5.287-26.221 8.079-33.378 12.008-40.704 14.438-47.994 15.308-49.002 15.427-49.961 15.518-50.873 15.582-55.032 15.872-58.269 12.02-57.342 7.955-56.048 8.248-53.529 8.487-48.863 7.937-42.531 7.183-36.11 5.046-29.786 1.578-23.387-1.941-12.102-5.934 0 0" fill="#78cdd0"/>
<path transform="matrix(1,0,0,-1,353.5275,247.8136)" d="M0 0C-24.665-12-32.062-8.834-43.13-4.098-49.774-1.251-57.303 1.978-68.266 3.193-68.294 3.196-68.323 3.199-68.351 3.202-72.786 3.679-76.613 .076-76.613-4.385V-4.388C-74.203-3.979-71.676-3.897-69.082-4.186-59.21-5.286-52.212-8.275-46.048-10.918-35.971-15.227-27.058-19.053-6.536-11-2.586-9.45 .023-5.644 .027-1.401 .027-.94 .018-.461 0 0" fill="#78cdd0"/>
<path transform="matrix(1,0,0,-1,429.0482,242.6839)" d="M0 0C0 3.675-3.53 6.248-7.064 5.242-14.372 3.163-21.142 5.287-26.221 8.079-33.378 12.008-40.704 14.438-47.994 15.308-49.002 15.427-49.961 15.518-50.873 15.582-55.032 15.872-58.269 12.02-57.342 7.955-56.048 8.248-53.529 8.487-48.863 7.937-42.531 7.183-36.11 5.046-29.786 1.578-23.387-1.941-12.102-5.934 0 0" fill="#78cdd0"/>
<path transform="matrix(1,0,0,-1,441.6122,247.8136)" d="M0 0C-24.665-12-32.062-8.834-43.13-4.098-49.774-1.251-57.303 1.978-68.266 3.193-68.294 3.196-68.323 3.199-68.351 3.202-72.786 3.679-76.613 .076-76.613-4.385V-4.388C-74.203-3.979-71.676-3.897-69.082-4.186-59.21-5.286-52.212-8.275-46.048-10.918-35.971-15.227-27.058-19.053-6.536-11-2.586-9.45 .023-5.644 .027-1.401 .027-.94 .018-.461 0 0" fill="#78cdd0"/>
<path transform="matrix(1,0,0,-1,517.1328,133.38828)" d="M0 0C0 3.675-3.53 6.248-7.064 5.242-14.372 3.163-21.142 5.287-26.221 8.079-33.378 12.008-40.704 14.438-47.994 15.308-49.002 15.427-49.961 15.518-50.873 15.582-55.032 15.872-58.269 12.02-57.342 7.955-56.048 8.248-53.529 8.487-48.863 7.937-42.531 7.183-36.11 5.046-29.786 1.578-23.387-1.941-12.102-5.934 0 0" fill="#78cdd0"/>
<path transform="matrix(1,0,0,-1,529.6968,138.51798)" d="M0 0C-24.665-12-32.062-8.834-43.131-4.098-49.774-1.251-57.303 1.978-68.266 3.193-68.294 3.196-68.323 3.199-68.351 3.202-72.786 3.679-76.613 .076-76.613-4.385V-4.388C-74.203-3.979-71.676-3.897-69.082-4.186-59.21-5.286-52.213-8.275-46.049-10.918-35.971-15.227-27.058-19.053-6.536-11-2.586-9.45 .023-5.644 .026-1.401 .026-.94 .018-.461 0 0" fill="#78cdd0"/>
<path transform="matrix(1,0,0,-1,605.2175,133.38828)" d="M0 0C0 3.675-3.53 6.248-7.064 5.242-14.372 3.163-21.142 5.287-26.221 8.079-33.378 12.008-40.704 14.438-47.994 15.308-49.002 15.427-49.961 15.518-50.873 15.582-55.032 15.872-58.269 12.02-57.342 7.955-56.048 8.248-53.529 8.487-48.864 7.937-42.531 7.183-36.11 5.046-29.786 1.578-23.387-1.941-12.102-5.934 0 0" fill="#78cdd0"/>
<path transform="matrix(1,0,0,-1,617.7814,138.51798)" d="M0 0C-24.665-12-32.062-8.834-43.13-4.098-49.773-1.251-57.303 1.978-68.266 3.193-68.294 3.196-68.323 3.199-68.351 3.202-72.786 3.679-76.613 .076-76.613-4.385V-4.388C-74.203-3.979-71.676-3.897-69.082-4.186-59.21-5.286-52.212-8.275-46.048-10.918-35.971-15.227-27.058-19.053-6.536-11-2.586-9.45 .023-5.644 .027-1.401 .027-.94 .018-.461 0 0" fill="#78cdd0"/>
<path transform="matrix(1,0,0,-1,517.1328,169.8201)" d="M0 0C0 3.675-3.53 6.248-7.064 5.242-14.372 3.163-21.142 5.287-26.221 8.079-33.378 12.008-40.704 14.438-47.994 15.308-49.002 15.427-49.961 15.518-50.873 15.582-55.032 15.872-58.269 12.02-57.342 7.955-56.048 8.248-53.529 8.487-48.863 7.937-42.531 7.183-36.11 5.046-29.786 1.578-23.387-1.941-12.102-5.934 0 0Z" fill="#78cdd0"/>
<path transform="matrix(1,0,0,-1,529.6968,174.94989)" d="M0 0C-24.665-12-32.062-8.834-43.131-4.098-49.774-1.251-57.303 1.978-68.266 3.193-68.294 3.196-68.323 3.199-68.351 3.202-72.786 3.679-76.613 .076-76.613-4.385V-4.388C-74.203-3.979-71.676-3.897-69.082-4.186-59.21-5.286-52.213-8.275-46.049-10.918-35.971-15.227-27.058-19.053-6.536-11-2.586-9.45 .023-5.644 .026-1.401 .026-.94 .018-.461 0 0" fill="#78cdd0"/>
<path transform="matrix(1,0,0,-1,605.2175,169.8201)" d="M0 0C0 3.675-3.53 6.248-7.064 5.242-14.372 3.163-21.142 5.287-26.221 8.079-33.378 12.008-40.704 14.438-47.994 15.308-49.002 15.427-49.961 15.518-50.873 15.582-55.032 15.872-58.269 12.02-57.342 7.955-56.048 8.248-53.529 8.487-48.864 7.937-42.531 7.183-36.11 5.046-29.786 1.578-23.387-1.941-12.102-5.934 0 0Z" fill="#78cdd0"/>
<path transform="matrix(1,0,0,-1,617.7814,174.94989)" d="M0 0C-24.665-12-32.062-8.834-43.13-4.098-49.773-1.251-57.303 1.978-68.266 3.193-68.294 3.196-68.323 3.199-68.351 3.202-72.786 3.679-76.613 .076-76.613-4.385V-4.388C-74.203-3.979-71.676-3.897-69.082-4.186-59.21-5.286-52.212-8.275-46.048-10.918-35.971-15.227-27.058-19.053-6.536-11-2.586-9.45 .023-5.644 .027-1.401 .027-.94 .018-.461 0 0" fill="#78cdd0"/>
<path transform="matrix(1,0,0,-1,517.1328,206.25199)" d="M0 0C0 3.675-3.53 6.248-7.064 5.242-14.372 3.163-21.142 5.287-26.221 8.079-33.378 12.008-40.704 14.438-47.994 15.308-49.002 15.427-49.961 15.518-50.873 15.582-55.032 15.872-58.269 12.02-57.342 7.955-56.048 8.248-53.529 8.487-48.863 7.937-42.531 7.183-36.11 5.046-29.786 1.578-23.387-1.941-12.102-5.934 0 0" fill="#78cdd0"/>
<path transform="matrix(1,0,0,-1,529.6968,211.38178)" d="M0 0C-24.665-12-32.062-8.834-43.131-4.098-49.774-1.251-57.303 1.978-68.266 3.193-68.294 3.196-68.323 3.199-68.351 3.202-72.786 3.679-76.613 .076-76.613-4.385V-4.388C-74.203-3.978-71.676-3.897-69.082-4.186-59.21-5.286-52.213-8.275-46.049-10.918-35.971-15.227-27.058-19.053-6.536-11-2.586-9.45 .023-5.644 .026-1.401 .026-.94 .018-.461 0 0" fill="#78cdd0"/>
<path transform="matrix(1,0,0,-1,605.2175,206.25199)" d="M0 0C0 3.675-3.53 6.248-7.064 5.242-14.372 3.163-21.142 5.287-26.221 8.079-33.378 12.008-40.704 14.438-47.994 15.308-49.002 15.427-49.961 15.518-50.873 15.582-55.032 15.872-58.269 12.02-57.342 7.955-56.048 8.248-53.529 8.487-48.864 7.937-42.531 7.183-36.11 5.046-29.786 1.578-23.387-1.941-12.102-5.934 0 0" fill="#78cdd0"/>
<path transform="matrix(1,0,0,-1,617.7814,211.38178)" d="M0 0C-24.665-12-32.062-8.834-43.13-4.098-49.773-1.251-57.303 1.978-68.266 3.193-68.294 3.196-68.323 3.199-68.351 3.202-72.786 3.679-76.613 .076-76.613-4.385V-4.388C-74.203-3.978-71.676-3.897-69.082-4.186-59.21-5.286-52.212-8.275-46.048-10.918-35.971-15.227-27.058-19.053-6.536-11-2.586-9.45 .023-5.644 .027-1.401 .027-.94 .018-.461 0 0" fill="#78cdd0"/>
<path transform="matrix(1,0,0,-1,517.1328,242.6839)" d="M0 0C0 3.675-3.53 6.248-7.064 5.242-14.372 3.163-21.142 5.287-26.221 8.079-33.378 12.008-40.704 14.438-47.994 15.308-49.002 15.427-49.961 15.518-50.873 15.582-55.032 15.872-58.269 12.02-57.342 7.955-56.048 8.248-53.529 8.487-48.863 7.937-42.531 7.183-36.11 5.046-29.786 1.578-23.387-1.941-12.102-5.934 0 0" fill="#78cdd0"/>
<path transform="matrix(1,0,0,-1,529.6968,247.8136)" d="M0 0C-24.665-12-32.062-8.834-43.131-4.098-49.774-1.251-57.303 1.978-68.266 3.193-68.294 3.196-68.323 3.199-68.351 3.202-72.786 3.679-76.613 .076-76.613-4.385V-4.388C-74.203-3.979-71.676-3.897-69.082-4.186-59.21-5.286-52.213-8.275-46.049-10.918-35.971-15.227-27.058-19.053-6.536-11-2.586-9.45 .023-5.644 .026-1.401 .026-.94 .018-.461 0 0" fill="#78cdd0"/>
<path transform="matrix(1,0,0,-1,605.2175,242.6839)" d="M0 0C0 3.675-3.53 6.248-7.064 5.242-14.372 3.163-21.142 5.287-26.221 8.079-33.378 12.008-40.704 14.438-47.994 15.308-49.002 15.427-49.961 15.518-50.873 15.582-55.032 15.872-58.269 12.02-57.342 7.955-56.048 8.248-53.529 8.487-48.864 7.937-42.531 7.183-36.11 5.046-29.786 1.578-23.387-1.941-12.102-5.934 0 0" fill="#78cdd0"/>
<path transform="matrix(1,0,0,-1,617.7814,247.8136)" d="M0 0C-24.665-12-32.062-8.834-43.13-4.098-49.773-1.251-57.303 1.978-68.266 3.193-68.294 3.196-68.323 3.199-68.351 3.202-72.786 3.679-76.613 .076-76.613-4.385V-4.388C-74.203-3.979-71.676-3.897-69.082-4.186-59.21-5.286-52.212-8.275-46.048-10.918-35.971-15.227-27.058-19.053-6.536-11-2.586-9.45 .023-5.644 .027-1.401 .027-.94 .018-.461 0 0" fill="#78cdd0"/>
<path transform="matrix(1,0,0,-1,166.2413,279.11579)" d="M0 0C0 3.675-3.53 6.248-7.064 5.242-14.372 3.163-21.142 5.287-26.221 8.079-33.378 12.008-40.704 14.438-47.994 15.308-49.002 15.427-49.961 15.518-50.873 15.582-55.032 15.872-58.269 12.02-57.342 7.955-56.048 8.248-53.529 8.487-48.863 7.937-42.531 7.183-36.11 5.046-29.786 1.578-23.387-1.941-12.102-5.934 0 0" fill="#78cdd0"/>
<path transform="matrix(1,0,0,-1,178.8053,284.24549)" d="M0 0C-24.665-12-32.062-8.834-43.13-4.098-49.774-1.251-57.303 1.978-68.266 3.193-68.294 3.196-68.323 3.199-68.351 3.202-72.786 3.679-76.613 .076-76.613-4.385V-4.388C-74.203-3.979-71.676-3.897-69.082-4.186-59.21-5.286-52.212-8.275-46.049-10.918-35.971-15.227-27.058-19.053-6.536-11-2.586-9.45 .023-5.644 .027-1.401 .027-.94 .018-.461 0 0" fill="#78cdd0"/>
<path transform="matrix(1,0,0,-1,254.326,279.11579)" d="M0 0C0 3.675-3.53 6.248-7.064 5.242-14.372 3.163-21.142 5.287-26.221 8.079-33.378 12.008-40.704 14.438-47.994 15.308-49.002 15.427-49.961 15.518-50.873 15.582-55.032 15.872-58.269 12.02-57.342 7.955-56.048 8.248-53.529 8.487-48.864 7.937-42.531 7.183-36.11 5.046-29.786 1.578-23.387-1.941-12.102-5.934 0 0" fill="#78cdd0"/>
<path transform="matrix(1,0,0,-1,266.89,284.24549)" d="M0 0C-24.665-12-32.062-8.834-43.13-4.098-49.774-1.251-57.303 1.978-68.266 3.193-68.294 3.196-68.323 3.199-68.351 3.202-72.786 3.679-76.613 .076-76.613-4.385V-4.388C-74.203-3.979-71.676-3.897-69.082-4.186-59.21-5.286-52.213-8.275-46.049-10.918-35.971-15.227-27.058-19.053-6.536-11-2.586-9.45 .023-5.644 .027-1.401 .027-.94 .018-.461 0 0" fill="#78cdd0"/>
<path transform="matrix(1,0,0,-1,340.9635,279.11579)" d="M0 0C0 3.675-3.53 6.248-7.064 5.242-14.372 3.163-21.142 5.287-26.221 8.079-33.378 12.008-40.704 14.438-47.994 15.308-49.002 15.427-49.961 15.518-50.873 15.582-55.032 15.872-58.269 12.02-57.342 7.955-56.048 8.248-53.529 8.487-48.863 7.937-42.531 7.183-36.11 5.046-29.786 1.578-23.387-1.941-12.102-5.934 0 0" fill="#78cdd0"/>
<path transform="matrix(1,0,0,-1,353.5275,284.24549)" d="M0 0C-24.665-12-32.062-8.834-43.13-4.098-49.774-1.251-57.303 1.978-68.266 3.193-68.294 3.196-68.323 3.199-68.351 3.202-72.786 3.679-76.613 .076-76.613-4.385V-4.388C-74.203-3.979-71.676-3.897-69.082-4.186-59.21-5.286-52.212-8.275-46.048-10.918-35.971-15.227-27.058-19.053-6.536-11-2.586-9.45 .023-5.644 .027-1.401 .027-.94 .018-.461 0 0" fill="#78cdd0"/>
<path transform="matrix(1,0,0,-1,429.0482,279.11579)" d="M0 0C0 3.675-3.53 6.248-7.064 5.242-14.372 3.163-21.142 5.287-26.221 8.079-33.378 12.008-40.704 14.438-47.994 15.308-49.002 15.427-49.961 15.518-50.873 15.582-55.032 15.872-58.269 12.02-57.342 7.955-56.048 8.248-53.529 8.487-48.863 7.937-42.531 7.183-36.11 5.046-29.786 1.578-23.387-1.941-12.102-5.934 0 0" fill="#78cdd0"/>
<path transform="matrix(1,0,0,-1,441.6122,284.24549)" d="M0 0C-24.665-12-32.062-8.834-43.13-4.098-49.774-1.251-57.303 1.978-68.266 3.193-68.294 3.196-68.323 3.199-68.351 3.202-72.786 3.679-76.613 .076-76.613-4.385V-4.388C-74.203-3.979-71.676-3.897-69.082-4.186-59.21-5.286-52.212-8.275-46.048-10.918-35.971-15.227-27.058-19.053-6.536-11-2.586-9.45 .023-5.644 .027-1.401 .027-.94 .018-.461 0 0" fill="#78cdd0"/>
<path transform="matrix(1,0,0,-1,166.2413,315.54768)" d="M0 0C0 3.675-3.53 6.248-7.064 5.242-14.372 3.163-21.142 5.287-26.221 8.079-33.378 12.008-40.704 14.438-47.994 15.308-49.002 15.427-49.961 15.518-50.873 15.582-55.032 15.872-58.269 12.02-57.342 7.955-56.048 8.248-53.529 8.487-48.863 7.937-42.531 7.183-36.11 5.046-29.786 1.578-23.387-1.941-12.102-5.934 0 0" fill="#78cdd0"/>
<path transform="matrix(1,0,0,-1,178.8053,320.67738)" d="M0 0C-24.665-12-32.062-8.834-43.13-4.098-49.774-1.251-57.303 1.978-68.266 3.193-68.294 3.196-68.323 3.199-68.351 3.202-72.786 3.679-76.613 .076-76.613-4.385V-4.388C-74.203-3.979-71.676-3.897-69.082-4.186-59.21-5.286-52.212-8.275-46.049-10.918-35.971-15.227-27.058-19.053-6.536-11-2.586-9.45 .023-5.644 .027-1.401 .027-.94 .018-.461 0 0" fill="#78cdd0"/>
<path transform="matrix(1,0,0,-1,254.326,315.54768)" d="M0 0C0 3.675-3.53 6.248-7.064 5.242-14.372 3.163-21.142 5.287-26.221 8.079-33.378 12.008-40.704 14.438-47.994 15.308-49.002 15.427-49.961 15.518-50.873 15.582-55.032 15.872-58.269 12.02-57.342 7.955-56.048 8.248-53.529 8.487-48.864 7.937-42.531 7.183-36.11 5.046-29.786 1.578-23.387-1.941-12.102-5.934 0 0" fill="#78cdd0"/>
<path transform="matrix(1,0,0,-1,266.89,320.67738)" d="M0 0C-24.665-12-32.062-8.834-43.13-4.098-49.774-1.251-57.303 1.978-68.266 3.193-68.294 3.196-68.323 3.199-68.351 3.202-72.786 3.679-76.613 .076-76.613-4.385V-4.388C-74.203-3.979-71.676-3.897-69.082-4.186-59.21-5.286-52.213-8.275-46.049-10.918-35.971-15.227-27.058-19.053-6.536-11-2.586-9.45 .023-5.644 .027-1.401 .027-.94 .018-.461 0 0" fill="#78cdd0"/>
<path transform="matrix(1,0,0,-1,340.9635,315.54768)" d="M0 0C0 3.675-3.53 6.248-7.064 5.242-14.372 3.163-21.142 5.287-26.221 8.079-33.378 12.008-40.704 14.438-47.994 15.308-49.002 15.427-49.961 15.518-50.873 15.582-55.032 15.872-58.269 12.02-57.342 7.955-56.048 8.248-53.529 8.487-48.863 7.937-42.531 7.183-36.11 5.046-29.786 1.578-23.387-1.941-12.102-5.934 0 0" fill="#78cdd0"/>
<path transform="matrix(1,0,0,-1,353.5275,320.67738)" d="M0 0C-24.665-12-32.062-8.834-43.13-4.098-49.774-1.251-57.303 1.978-68.266 3.193-68.294 3.196-68.323 3.199-68.351 3.202-72.786 3.679-76.613 .076-76.613-4.385V-4.388C-74.203-3.979-71.676-3.897-69.082-4.186-59.21-5.286-52.212-8.275-46.048-10.918-35.971-15.227-27.058-19.053-6.536-11-2.586-9.45 .023-5.644 .027-1.401 .027-.94 .018-.461 0 0" fill="#78cdd0"/>
<path transform="matrix(1,0,0,-1,429.0482,315.54768)" d="M0 0C0 3.675-3.53 6.248-7.064 5.242-14.372 3.163-21.142 5.287-26.221 8.079-33.378 12.008-40.704 14.438-47.994 15.308-49.002 15.427-49.961 15.518-50.873 15.582-55.032 15.872-58.269 12.02-57.342 7.955-56.048 8.248-53.529 8.487-48.863 7.937-42.531 7.183-36.11 5.046-29.786 1.578-23.387-1.941-12.102-5.934 0 0" fill="#78cdd0"/>
<path transform="matrix(1,0,0,-1,441.6122,320.67738)" d="M0 0C-24.665-12-32.062-8.834-43.13-4.098-49.774-1.251-57.303 1.978-68.266 3.193-68.294 3.196-68.323 3.199-68.351 3.202-72.786 3.679-76.613 .076-76.613-4.385V-4.388C-74.203-3.979-71.676-3.897-69.082-4.186-59.21-5.286-52.212-8.275-46.048-10.918-35.971-15.227-27.058-19.053-6.536-11-2.586-9.45 .023-5.644 .027-1.401 .027-.94 .018-.461 0 0" fill="#78cdd0"/>
<path transform="matrix(1,0,0,-1,166.2413,351.9795)" d="M0 0C0 3.675-3.53 6.248-7.064 5.242-14.372 3.163-21.142 5.287-26.221 8.079-33.378 12.008-40.704 14.438-47.994 15.308-49.002 15.427-49.961 15.518-50.873 15.582-55.032 15.872-58.269 12.02-57.342 7.955-56.048 8.248-53.529 8.487-48.863 7.937-42.531 7.183-36.11 5.046-29.786 1.578-23.387-1.941-12.102-5.934 0 0Z" fill="#78cdd0"/>
<path transform="matrix(1,0,0,-1,178.8053,357.10929)" d="M0 0C-24.665-12-32.062-8.834-43.13-4.098-49.774-1.251-57.303 1.978-68.266 3.193-68.294 3.196-68.323 3.199-68.351 3.202-72.786 3.679-76.613 .076-76.613-4.385V-4.388C-74.203-3.979-71.676-3.897-69.082-4.186-59.21-5.286-52.212-8.275-46.049-10.918-35.971-15.227-27.058-19.053-6.536-11-2.586-9.45 .023-5.644 .027-1.401 .027-.94 .018-.461 0 0" fill="#78cdd0"/>
<path transform="matrix(1,0,0,-1,254.326,351.9795)" d="M0 0C0 3.675-3.53 6.248-7.064 5.242-14.372 3.163-21.142 5.287-26.221 8.079-33.378 12.008-40.704 14.438-47.994 15.308-49.002 15.427-49.961 15.518-50.873 15.582-55.032 15.872-58.269 12.02-57.342 7.955-56.048 8.248-53.529 8.487-48.864 7.937-42.531 7.183-36.11 5.046-29.786 1.578-23.387-1.941-12.102-5.934 0 0Z" fill="#78cdd0"/>
<path transform="matrix(1,0,0,-1,266.89,357.10929)" d="M0 0C-24.665-12-32.062-8.834-43.13-4.098-49.774-1.251-57.303 1.978-68.266 3.193-68.294 3.196-68.323 3.199-68.351 3.202-72.786 3.679-76.613 .076-76.613-4.385V-4.388C-74.203-3.979-71.676-3.897-69.082-4.186-59.21-5.286-52.213-8.275-46.049-10.918-35.971-15.227-27.058-19.053-6.536-11-2.586-9.45 .023-5.644 .027-1.401 .027-.94 .018-.461 0 0" fill="#78cdd0"/>
<path transform="matrix(1,0,0,-1,340.9635,351.9795)" d="M0 0C0 3.675-3.53 6.248-7.064 5.242-14.372 3.163-21.142 5.287-26.221 8.079-33.378 12.008-40.704 14.438-47.994 15.308-49.002 15.427-49.961 15.518-50.873 15.582-55.032 15.872-58.269 12.02-57.342 7.955-56.048 8.248-53.529 8.487-48.863 7.937-42.531 7.183-36.11 5.046-29.786 1.578-23.387-1.941-12.102-5.934 0 0Z" fill="#78cdd0"/>
<path transform="matrix(1,0,0,-1,353.5275,357.10929)" d="M0 0C-24.665-12-32.062-8.834-43.13-4.098-49.774-1.251-57.303 1.978-68.266 3.193-68.294 3.196-68.323 3.199-68.351 3.202-72.786 3.679-76.613 .076-76.613-4.385V-4.388C-74.203-3.979-71.676-3.897-69.082-4.186-59.21-5.286-52.212-8.275-46.048-10.918-35.971-15.227-27.058-19.053-6.536-11-2.586-9.45 .023-5.644 .027-1.401 .027-.94 .018-.461 0 0" fill="#78cdd0"/>
<path transform="matrix(1,0,0,-1,429.0482,351.9795)" d="M0 0C0 3.675-3.53 6.248-7.064 5.242-14.372 3.163-21.142 5.287-26.221 8.079-33.378 12.008-40.704 14.438-47.994 15.308-49.002 15.427-49.961 15.518-50.873 15.582-55.032 15.872-58.269 12.02-57.342 7.955-56.048 8.248-53.529 8.487-48.863 7.937-42.531 7.183-36.11 5.046-29.786 1.578-23.387-1.941-12.102-5.934 0 0Z" fill="#78cdd0"/>
<path transform="matrix(1,0,0,-1,441.6122,357.10929)" d="M0 0C-24.665-12-32.062-8.834-43.13-4.098-49.774-1.251-57.303 1.978-68.266 3.193-68.294 3.196-68.323 3.199-68.351 3.202-72.786 3.679-76.613 .076-76.613-4.385V-4.388C-74.203-3.979-71.676-3.897-69.082-4.186-59.21-5.286-52.212-8.275-46.048-10.918-35.971-15.227-27.058-19.053-6.536-11-2.586-9.45 .023-5.644 .027-1.401 .027-.94 .018-.461 0 0" fill="#78cdd0"/>
<path transform="matrix(1,0,0,-1,166.2413,388.41139)" d="M0 0C0 3.675-3.53 6.248-7.064 5.242-14.372 3.163-21.142 5.287-26.221 8.079-33.378 12.008-40.704 14.438-47.994 15.308-49.002 15.427-49.961 15.518-50.873 15.582-55.032 15.872-58.269 12.02-57.342 7.955-56.048 8.248-53.529 8.487-48.863 7.937-42.531 7.183-36.11 5.046-29.786 1.578-23.387-1.941-12.102-5.934 0 0" fill="#78cdd0"/>
<path transform="matrix(1,0,0,-1,178.8053,393.54109)" d="M0 0C-24.665-12-32.062-8.834-43.13-4.098-49.774-1.251-57.303 1.978-68.266 3.193-68.294 3.196-68.323 3.199-68.351 3.202-72.786 3.679-76.613 .076-76.613-4.385V-4.388C-74.203-3.979-71.676-3.897-69.082-4.186-59.21-5.286-52.212-8.275-46.049-10.918-35.971-15.227-27.058-19.053-6.536-11-2.586-9.45 .023-5.644 .027-1.401 .027-.94 .018-.461 0 0" fill="#78cdd0"/>
<path transform="matrix(1,0,0,-1,254.326,388.41139)" d="M0 0C0 3.675-3.53 6.248-7.064 5.242-14.372 3.163-21.142 5.287-26.221 8.079-33.378 12.008-40.704 14.438-47.994 15.308-49.002 15.427-49.961 15.518-50.873 15.582-55.032 15.872-58.269 12.02-57.342 7.955-56.048 8.248-53.529 8.487-48.864 7.937-42.531 7.183-36.11 5.046-29.786 1.578-23.387-1.941-12.102-5.934 0 0" fill="#78cdd0"/>
<path transform="matrix(1,0,0,-1,266.89,393.54109)" d="M0 0C-24.665-12-32.062-8.834-43.13-4.098-49.774-1.251-57.303 1.978-68.266 3.193-68.294 3.196-68.323 3.199-68.351 3.202-72.786 3.679-76.613 .076-76.613-4.385V-4.388C-74.203-3.979-71.676-3.897-69.082-4.186-59.21-5.286-52.213-8.275-46.049-10.918-35.971-15.227-27.058-19.053-6.536-11-2.586-9.45 .023-5.644 .027-1.401 .027-.94 .018-.461 0 0" fill="#78cdd0"/>
<path transform="matrix(1,0,0,-1,340.9635,388.41139)" d="M0 0C0 3.675-3.53 6.248-7.064 5.242-14.372 3.163-21.142 5.287-26.221 8.079-33.378 12.008-40.704 14.438-47.994 15.308-49.002 15.427-49.961 15.518-50.873 15.582-55.032 15.872-58.269 12.02-57.342 7.955-56.048 8.248-53.529 8.487-48.863 7.937-42.531 7.183-36.11 5.046-29.786 1.578-23.387-1.941-12.102-5.934 0 0" fill="#78cdd0"/>
<path transform="matrix(1,0,0,-1,353.5275,393.54109)" d="M0 0C-24.665-12-32.062-8.834-43.13-4.098-49.774-1.251-57.303 1.978-68.266 3.193-68.294 3.196-68.323 3.199-68.351 3.202-72.786 3.679-76.613 .076-76.613-4.385V-4.388C-74.203-3.979-71.676-3.897-69.082-4.186-59.21-5.286-52.212-8.275-46.048-10.918-35.971-15.227-27.058-19.053-6.536-11-2.586-9.45 .023-5.644 .027-1.401 .027-.94 .018-.461 0 0" fill="#78cdd0"/>
<path transform="matrix(1,0,0,-1,429.0482,388.41139)" d="M0 0C0 3.675-3.53 6.248-7.064 5.242-14.372 3.163-21.142 5.287-26.221 8.079-33.378 12.008-40.704 14.438-47.994 15.308-49.002 15.427-49.961 15.518-50.873 15.582-55.032 15.872-58.269 12.02-57.342 7.955-56.048 8.248-53.529 8.487-48.863 7.937-42.531 7.183-36.11 5.046-29.786 1.578-23.387-1.941-12.102-5.934 0 0" fill="#78cdd0"/>
<path transform="matrix(1,0,0,-1,441.6122,393.54109)" d="M0 0C-24.665-12-32.062-8.834-43.13-4.098-49.774-1.251-57.303 1.978-68.266 3.193-68.294 3.196-68.323 3.199-68.351 3.202-72.786 3.679-76.613 .076-76.613-4.385V-4.388C-74.203-3.979-71.676-3.897-69.082-4.186-59.21-5.286-52.212-8.275-46.048-10.918-35.971-15.227-27.058-19.053-6.536-11-2.586-9.45 .023-5.644 .027-1.401 .027-.94 .018-.461 0 0" fill="#78cdd0"/>
<path transform="matrix(1,0,0,-1,517.1328,279.11579)" d="M0 0C0 3.675-3.53 6.248-7.064 5.242-14.372 3.163-21.142 5.287-26.221 8.079-33.378 12.008-40.704 14.438-47.994 15.308-49.002 15.427-49.961 15.518-50.873 15.582-55.032 15.872-58.269 12.02-57.342 7.955-56.048 8.248-53.529 8.487-48.863 7.937-42.531 7.183-36.11 5.046-29.786 1.578-23.387-1.941-12.102-5.934 0 0" fill="#78cdd0"/>
<path transform="matrix(1,0,0,-1,529.6968,284.24549)" d="M0 0C-24.665-12-32.062-8.834-43.131-4.098-49.774-1.251-57.303 1.978-68.266 3.193-68.294 3.196-68.323 3.199-68.351 3.202-72.786 3.679-76.613 .076-76.613-4.385V-4.388C-74.203-3.979-71.676-3.897-69.082-4.186-59.21-5.286-52.213-8.275-46.049-10.918-35.971-15.227-27.058-19.053-6.536-11-2.586-9.45 .023-5.644 .026-1.401 .026-.94 .018-.461 0 0" fill="#78cdd0"/>
<path transform="matrix(1,0,0,-1,605.2175,279.11579)" d="M0 0C0 3.675-3.53 6.248-7.064 5.242-14.372 3.163-21.142 5.287-26.221 8.079-33.378 12.008-40.704 14.438-47.994 15.308-49.002 15.427-49.961 15.518-50.873 15.582-55.032 15.872-58.269 12.02-57.342 7.955-56.048 8.248-53.529 8.487-48.864 7.937-42.531 7.183-36.11 5.046-29.786 1.578-23.387-1.941-12.102-5.934 0 0" fill="#78cdd0"/>
<path transform="matrix(1,0,0,-1,617.7814,284.24549)" d="M0 0C-24.665-12-32.062-8.834-43.13-4.098-49.773-1.251-57.303 1.978-68.266 3.193-68.294 3.196-68.323 3.199-68.351 3.202-72.786 3.679-76.613 .076-76.613-4.385V-4.388C-74.203-3.979-71.676-3.897-69.082-4.186-59.21-5.286-52.212-8.275-46.048-10.918-35.971-15.227-27.058-19.053-6.536-11-2.586-9.45 .023-5.644 .027-1.401 .027-.94 .018-.461 0 0" fill="#78cdd0"/>
<path transform="matrix(1,0,0,-1,517.1328,315.54768)" d="M0 0C0 3.675-3.53 6.248-7.064 5.242-14.372 3.163-21.142 5.287-26.221 8.079-33.378 12.008-40.704 14.438-47.994 15.308-49.002 15.427-49.961 15.518-50.873 15.582-55.032 15.872-58.269 12.02-57.342 7.955-56.048 8.248-53.529 8.487-48.863 7.937-42.531 7.183-36.11 5.046-29.786 1.578-23.387-1.941-12.102-5.934 0 0" fill="#78cdd0"/>
<path transform="matrix(1,0,0,-1,529.6968,320.67738)" d="M0 0C-24.665-12-32.062-8.834-43.131-4.098-49.774-1.251-57.303 1.978-68.266 3.193-68.294 3.196-68.323 3.199-68.351 3.202-72.786 3.679-76.613 .076-76.613-4.385V-4.388C-74.203-3.979-71.676-3.897-69.082-4.186-59.21-5.286-52.213-8.275-46.049-10.918-35.971-15.227-27.058-19.053-6.536-11-2.586-9.45 .023-5.644 .026-1.401 .026-.94 .018-.461 0 0" fill="#78cdd0"/>
<path transform="matrix(1,0,0,-1,605.2175,315.54768)" d="M0 0C0 3.675-3.53 6.248-7.064 5.242-14.372 3.163-21.142 5.287-26.221 8.079-33.378 12.008-40.704 14.438-47.994 15.308-49.002 15.427-49.961 15.518-50.873 15.582-55.032 15.872-58.269 12.02-57.342 7.955-56.048 8.248-53.529 8.487-48.864 7.937-42.531 7.183-36.11 5.046-29.786 1.578-23.387-1.941-12.102-5.934 0 0" fill="#78cdd0"/>
<path transform="matrix(1,0,0,-1,617.7814,320.67738)" d="M0 0C-24.665-12-32.062-8.834-43.13-4.098-49.773-1.251-57.303 1.978-68.266 3.193-68.294 3.196-68.323 3.199-68.351 3.202-72.786 3.679-76.613 .076-76.613-4.385V-4.388C-74.203-3.979-71.676-3.897-69.082-4.186-59.21-5.286-52.212-8.275-46.048-10.918-35.971-15.227-27.058-19.053-6.536-11-2.586-9.45 .023-5.644 .027-1.401 .027-.94 .018-.461 0 0" fill="#78cdd0"/>
<path transform="matrix(1,0,0,-1,517.1328,351.9795)" d="M0 0C0 3.675-3.53 6.248-7.064 5.242-14.372 3.163-21.142 5.287-26.221 8.079-33.378 12.008-40.704 14.438-47.994 15.308-49.002 15.427-49.961 15.518-50.873 15.582-55.032 15.872-58.269 12.02-57.342 7.955-56.048 8.248-53.529 8.487-48.863 7.937-42.531 7.183-36.11 5.046-29.786 1.578-23.387-1.941-12.102-5.934 0 0Z" fill="#78cdd0"/>
<path transform="matrix(1,0,0,-1,529.6968,357.10929)" d="M0 0C-24.665-12-32.062-8.834-43.131-4.098-49.774-1.251-57.303 1.978-68.266 3.193-68.294 3.196-68.323 3.199-68.351 3.202-72.786 3.679-76.613 .076-76.613-4.385V-4.388C-74.203-3.979-71.676-3.897-69.082-4.186-59.21-5.286-52.213-8.275-46.049-10.918-35.971-15.227-27.058-19.053-6.536-11-2.586-9.45 .023-5.644 .026-1.401 .026-.94 .018-.461 0 0" fill="#78cdd0"/>
<path transform="matrix(1,0,0,-1,605.2175,351.9795)" d="M0 0C0 3.675-3.53 6.248-7.064 5.242-14.372 3.163-21.142 5.287-26.221 8.079-33.378 12.008-40.704 14.438-47.994 15.308-49.002 15.427-49.961 15.518-50.873 15.582-55.032 15.872-58.269 12.02-57.342 7.955-56.048 8.248-53.529 8.487-48.864 7.937-42.531 7.183-36.11 5.046-29.786 1.578-23.387-1.941-12.102-5.934 0 0Z" fill="#78cdd0"/>
<path transform="matrix(1,0,0,-1,617.7814,357.10929)" d="M0 0C-24.665-12-32.062-8.834-43.13-4.098-49.773-1.251-57.303 1.978-68.266 3.193-68.294 3.196-68.323 3.199-68.351 3.202-72.786 3.679-76.613 .076-76.613-4.385V-4.388C-74.203-3.979-71.676-3.897-69.082-4.186-59.21-5.286-52.212-8.275-46.048-10.918-35.971-15.227-27.058-19.053-6.536-11-2.586-9.45 .023-5.644 .027-1.401 .027-.94 .018-.461 0 0" fill="#78cdd0"/>
<path transform="matrix(1,0,0,-1,517.1328,388.41139)" d="M0 0C0 3.675-3.53 6.248-7.064 5.242-14.372 3.163-21.142 5.287-26.221 8.079-33.378 12.008-40.704 14.438-47.994 15.308-49.002 15.427-49.961 15.518-50.873 15.582-55.032 15.872-58.269 12.02-57.342 7.955-56.048 8.248-53.529 8.487-48.863 7.937-42.531 7.183-36.11 5.046-29.786 1.578-23.387-1.941-12.102-5.934 0 0" fill="#78cdd0"/>
<path transform="matrix(1,0,0,-1,529.6968,393.54109)" d="M0 0C-24.665-12-32.062-8.834-43.131-4.098-49.774-1.251-57.303 1.978-68.266 3.193-68.294 3.196-68.323 3.199-68.351 3.202-72.786 3.679-76.613 .076-76.613-4.385V-4.388C-74.203-3.979-71.676-3.897-69.082-4.186-59.21-5.286-52.213-8.275-46.049-10.918-35.971-15.227-27.058-19.053-6.536-11-2.586-9.45 .023-5.644 .026-1.401 .026-.94 .018-.461 0 0" fill="#78cdd0"/>
<path transform="matrix(1,0,0,-1,605.2175,388.41139)" d="M0 0C0 3.675-3.53 6.248-7.064 5.242-14.372 3.163-21.142 5.287-26.221 8.079-33.378 12.008-40.704 14.438-47.994 15.308-49.002 15.427-49.961 15.518-50.873 15.582-55.032 15.872-58.269 12.02-57.342 7.955-56.048 8.248-53.529 8.487-48.864 7.937-42.531 7.183-36.11 5.046-29.786 1.578-23.387-1.941-12.102-5.934 0 0" fill="#78cdd0"/>
<path transform="matrix(1,0,0,-1,617.7814,393.54109)" d="M0 0C-24.665-12-32.062-8.834-43.13-4.098-49.773-1.251-57.303 1.978-68.266 3.193-68.294 3.196-68.323 3.199-68.351 3.202-72.786 3.679-76.613 .076-76.613-4.385V-4.388C-74.203-3.979-71.676-3.897-69.082-4.186-59.21-5.286-52.212-8.275-46.048-10.918-35.971-15.227-27.058-19.053-6.536-11-2.586-9.45 .023-5.644 .027-1.401 .027-.94 .018-.461 0 0" fill="#78cdd0"/>
</g>
</g>
</svg>
